{"asset":{"version":"2.0","generator":"Blockbench 4.12.6 glTF exporter"},"scenes":[{"nodes":[29],"name":"blockbench_export"}],"scene":0,"nodes":[{"translation":[0,-0.015625,0],"name":"face","mesh":0},{"rotation":[0.06540312923014306,0,0,0.9978589232386035],"translation":[0,0.53125,0.015625],"name":"Hat","mesh":1},{"rotation":[-0.7513251127651077,-0.09008267115205659,-0.17304723890188725,0.6304366267873732],"translation":[0.546875,0.3125,0.109375],"name":"Ears","mesh":2},{"rotation":[-0.7513251127651077,0.09008267115205659,0.17304723890188725,0.6304366267873732],"translation":[-0.546875,0.3125,0.109375],"name":"Ears","mesh":3},{"translation":[0,2.140625,0],"name":"Head","children":[0,1,2,3]},{"name":"cube","mesh":4},{"translation":[0,-0.39375000000000004,0],"name":"cube","mesh":5},{"translation":[0,-0.375,0],"name":"tube","mesh":6},{"rotation":[0,0,0.5913096483635824,0.8064446042674827],"translation":[0.39375,0.32499999999999996,-0.0125],"name":"rightArm","children":[5,6,7]},{"name":"cube","mesh":7},{"translation":[0,-0.39375000000000004,0],"name":"cube","mesh":8},{"translation":[0,-0.375,0],"name":"tube","mesh":9},{"rotation":[0,0,-0.5913096483635824,0.8064446042674827],"translation":[-0.39375,0.32499999999999996,-0.0125],"name":"leftArm","children":[9,10,11]},{"name":"chest","mesh":10},{"translation":[0,0.453125,0],"name":"neck","mesh":11},{"translation":[0,1.4375,0],"name":"UpperChest","children":[8,12,13,14]},{"translation":[0,0.51875,0],"name":"cube","mesh":12},{"name":"cube","mesh":13},{"name":"cuboid","mesh":14},{"translation":[0,-0.35625,-0.20625000000000002],"name":"cuboid","mesh":15},{"translation":[0.13125,-0.26875,0],"name":"rightLeg","children":[16,17,18,19]},{"name":"cube","mesh":16},{"name":"cuboid","mesh":17},{"translation":[0,-0.35625,-0.20625000000000002],"name":"cuboid","mesh":18},{"name":"shin","children":[21,22,23]},{"translation":[0,0.51875,0],"name":"thigh","mesh":19},{"translation":[-0.13125,-0.26875,0],"name":"leftLeg","children":[24,25]},{"translation":[0,0.1875,0],"name":"pelvis","mesh":20},{"translation":[0,0.65625,-0.0875],"name":"lowerChest","children":[20,26,27]},{"children":[4,15,28]}],"bufferViews":[{"buffer":0,"byteOffset":0,"byteLength":1512,"target":34962,"byteStride":12},{"buffer":0,"byteOffset":1512,"byteLength":1512,"target":34962,"byteStride":12},{"buffer":0,"byteOffset":3024,"byteLength":1008,"target":34962,"byteStride":8},{"buffer":0,"byteOffset":4032,"byteLength":336,"target":34963},{"buffer":0,"byteOffset":4368,"byteLength":2304,"target":34962,"byteStride":12},{"buffer":0,"byteOffset":6672,"byteLength":2304,"target":34962,"byteStride":12},{"buffer":0,"byteOffset":8976,"byteLength":1536,"target":34962,"byteStride":8},{"buffer":0,"byteOffset":10512,"byteLength":528,"target":34963},{"buffer":0,"byteOffset":11040,"byteLength":960,"target":34962,"byteStride":12},{"buffer":0,"byteOffset":12000,"byteLength":960,"target":34962,"byteStride":12},{"buffer":0,"byteOffset":12960,"byteLength":640,"target":34962,"byteStride":8},{"buffer":0,"byteOffset":13600,"byteLength":192,"target":34963},{"buffer":0,"byteOffset":13792,"byteLength":960,"target":34962,"byteStride":12},{"buffer":0,"byteOffset":14752,"byteLength":960,"target":34962,"byteStride":12},{"buffer":0,"byteOffset":15712,"byteLength":640,"target":34962,"byteStride":8},{"buffer":0,"byteOffset":16352,"byteLength":192,"target":34963},{"buffer":0,"byteOffset":16544,"byteLength":3168,"target":34962,"byteStride":12},{"buffer":0,"byteOffset":19712,"byteLength":3168,"target":34962,"byteStride":12},{"buffer":0,"byteOffset":22880,"byteLength":2112,"target":34962,"byteStride":8},{"buffer":0,"byteOffset":24992,"byteLength":792,"target":34963},{"buffer":0,"byteOffset":25784,"byteLength":3168,"target":34962,"byteStride":12},{"buffer":0,"byteOffset":28952,"byteLength":3168,"target":34962,"byteStride":12},{"buffer":0,"byteOffset":32120,"byteLength":2112,"target":34962,"byteStride":8},{"buffer":0,"byteOffset":34232,"byteLength":792,"target":34963},{"buffer":0,"byteOffset":35024,"byteLength":1656,"target":34962,"byteStride":12},{"buffer":0,"byteOffset":36680,"byteLength":1656,"target":34962,"byteStride":12},{"buffer":0,"byteOffset":38336,"byteLength":1104,"target":34962,"byteStride":8},{"buffer":0,"byteOffset":39440,"byteLength":408,"target":34963},{"buffer":0,"byteOffset":39848,"byteLength":3168,"target":34962,"byteStride":12},{"buffer":0,"byteOffset":43016,"byteLength":3168,"target":34962,"byteStride":12},{"buffer":0,"byteOffset":46184,"byteLength":2112,"target":34962,"byteStride":8},{"buffer":0,"byteOffset":48296,"byteLength":792,"target":34963},{"buffer":0,"byteOffset":49088,"byteLength":3168,"target":34962,"byteStride":12},{"buffer":0,"byteOffset":52256,"byteLength":3168,"target":34962,"byteStride":12},{"buffer":0,"byteOffset":55424,"byteLength":2112,"target":34962,"byteStride":8},{"buffer":0,"byteOffset":57536,"byteLength":792,"target":34963},{"buffer":0,"byteOffset":58328,"byteLength":1656,"target":34962,"byteStride":12},{"buffer":0,"byteOffset":59984,"byteLength":1656,"target":34962,"byteStride":12},{"buffer":0,"byteOffset":61640,"byteLength":1104,"target":34962,"byteStride":8},{"buffer":0,"byteOffset":62744,"byteLength":408,"target":34963},{"buffer":0,"byteOffset":63152,"byteLength":1776,"target":34962,"byteStride":12},{"buffer":0,"byteOffset":64928,"byteLength":1776,"target":34962,"byteStride":12},{"buffer":0,"byteOffset":66704,"byteLength":1184,"target":34962,"byteStride":8},{"buffer":0,"byteOffset":67888,"byteLength":408,"target":34963},{"buffer":0,"byteOffset":68296,"byteLength":1536,"target":34962,"byteStride":12},{"buffer":0,"byteOffset":69832,"byteLength":1536,"target":34962,"byteStride":12},{"buffer":0,"byteOffset":71368,"byteLength":1024,"target":34962,"byteStride":8},{"buffer":0,"byteOffset":72392,"byteLength":384,"target":34963},{"buffer":0,"byteOffset":72776,"byteLength":3744,"target":34962,"byteStride":12},{"buffer":0,"byteOffset":76520,"byteLength":3744,"target":34962,"byteStride":12},{"buffer":0,"byteOffset":80264,"byteLength":2496,"target":34962,"byteStride":8},{"buffer":0,"byteOffset":82760,"byteLength":936,"target":34963},{"buffer":0,"byteOffset":83696,"byteLength":2304,"target":34962,"byteStride":12},{"buffer":0,"byteOffset":86000,"byteLength":2304,"target":34962,"byteStride":12},{"buffer":0,"byteOffset":88304,"byteLength":1536,"target":34962,"byteStride":8},{"buffer":0,"byteOffset":89840,"byteLength":576,"target":34963},{"buffer":0,"byteOffset":90416,"byteLength":3816,"target":34962,"byteStride":12},{"buffer":0,"byteOffset":94232,"byteLength":3816,"target":34962,"byteStride":12},{"buffer":0,"byteOffset":98048,"byteLength":2544,"target":34962,"byteStride":8},{"buffer":0,"byteOffset":100592,"byteLength":948,"target":34963},{"buffer":0,"byteOffset":101540,"byteLength":1368,"target":34962,"byteStride":12},{"buffer":0,"byteOffset":102908,"byteLength":1368,"target":34962,"byteStride":12},{"buffer":0,"byteOffset":104276,"byteLength":912,"target":34962,"byteStride":8},{"buffer":0,"byteOffset":105188,"byteLength":336,"target":34963},{"buffer":0,"byteOffset":105524,"byteLength":2304,"target":34962,"byteStride":12},{"buffer":0,"byteOffset":107828,"byteLength":2304,"target":34962,"byteStride":12},{"buffer":0,"byteOffset":110132,"byteLength":1536,"target":34962,"byteStride":8},{"buffer":0,"byteOffset":111668,"byteLength":576,"target":34963},{"buffer":0,"byteOffset":112244,"byteLength":3816,"target":34962,"byteStride":12},{"buffer":0,"byteOffset":116060,"byteLength":3816,"target":34962,"byteStride":12},{"buffer":0,"byteOffset":119876,"byteLength":2544,"target":34962,"byteStride":8},{"buffer":0,"byteOffset":122420,"byteLength":948,"target":34963},{"buffer":0,"byteOffset":123368,"byteLength":1368,"target":34962,"byteStride":12},{"buffer":0,"byteOffset":124736,"byteLength":1368,"target":34962,"byteStride":12},{"buffer":0,"byteOffset":126104,"byteLength":912,"target":34962,"byteStride":8},{"buffer":0,"byteOffset":127016,"byteLength":336,"target":34963},{"buffer":0,"byteOffset":127352,"byteLength":3744,"target":34962,"byteStride":12},{"buffer":0,"byteOffset":131096,"byteLength":3744,"target":34962,"byteStride":12},{"buffer":0,"byteOffset":134840,"byteLength":2496,"target":34962,"byteStride":8},{"buffer":0,"byteOffset":137336,"byteLength":936,"target":34963},{"buffer":0,"byteOffset":138272,"byteLength":1536,"target":34962,"byteStride":12},{"buffer":0,"byteOffset":139808,"byteLength":1536,"target":34962,"byteStride":12},{"buffer":0,"byteOffset":141344,"byteLength":1024,"target":34962,"byteStride":8},{"buffer":0,"byteOffset":142368,"byteLength":384,"target":34963}],"buffers":[{"byteLength":142752,"uri":"data:application/octet-stream;base64,"}],"accessors":[{"bufferView":0,"componentType":5126,"count":126,"max":[0.5097943544387817,0.6875,0.5],"min":[-0.5097943544387817,-0.125,-0.6487081050872803],"type":"VEC3"},{"bufferView":1,"componentType":5126,"count":126,"max":[0.9536764025688171,0.9947246313095093,1],"min":[-0.9536764025688171,-0.9892034530639648,-0.8751741647720337],"type":"VEC3"},{"bufferView":2,"componentType":5126,"count":126,"max":[0.964206874370575,0.8756465911865234],"min":[0,0.005510449409484863],"type":"VEC2"},{"bufferView":3,"componentType":5123,"count":168,"max":[125],"min":[0],"type":"SCALAR"},{"bufferView":4,"componentType":5126,"count":192,"max":[0.453125,0.5419543981552124,0.8870231509208679],"min":[-0.453125,-0.35768625140190125,-0.530982494354248],"type":"VEC3"},{"bufferView":5,"componentType":5126,"count":192,"max":[0.9989064931869507,0.9687478542327881,0.9995847940444946],"min":[-0.9989064931869507,-0.9999704957008362,-0.993606448173523],"type":"VEC3"},{"bufferView":6,"componentType":5126,"count":192,"max":[0.9631734490394592,0.953125],"min":[0.005409374833106995,0],"type":"VEC2"},{"bufferView":7,"componentType":5123,"count":264,"max":[191],"min":[0],"type":"SCALAR"},{"bufferView":8,"componentType":5126,"count":80,"max":[0.2990756332874298,0.109375,0.1875],"min":[-0.1875,-0.16667312383651733,-0.1875],"type":"VEC3"},{"bufferView":9,"componentType":5126,"count":80,"max":[0.8347131013870239,0.9441388249397278,0.9766430258750916],"min":[-1,-0.9389146566390991,-1],"type":"VEC3"},{"bufferView":10,"componentType":5126,"count":80,"max":[0.9318270087242126,0.8220979571342468],"min":[0,0],"type":"VEC2"},{"bufferView":11,"componentType":5123,"count":96,"max":[79],"min":[0],"type":"SCALAR"},{"bufferView":12,"componentType":5126,"count":80,"max":[0.1875,0.109375,0.1875],"min":[-0.2990756332874298,-0.16667312383651733,-0.1875],"type":"VEC3"},{"bufferView":13,"componentType":5126,"count":80,"max":[1,0.9441388249397278,0.9766430258750916],"min":[-0.8347131013870239,-0.9389146566390991,-1],"type":"VEC3"},{"bufferView":14,"componentType":5126,"count":80,"max":[0.9318270087242126,0.8220979571342468],"min":[0,0],"type":"VEC2"},{"bufferView":15,"componentType":5123,"count":96,"max":[79],"min":[0],"type":"SCALAR"},{"bufferView":16,"componentType":5126,"count":264,"max":[0.10625000298023224,0.22499999403953552,0.10625000298023224],"min":[-0.10625000298023224,-0.35624998807907104,-0.10625000298023224],"type":"VEC3"},{"bufferView":17,"componentType":5126,"count":264,"max":[1,1,1],"min":[-1,-1,-1],"type":"VEC3"},{"bufferView":18,"componentType":5126,"count":264,"max":[0.9031462669372559,0.90625],"min":[0.00047812500270083547,0],"type":"VEC2"},{"bufferView":19,"componentType":5123,"count":396,"max":[263],"min":[0],"type":"SCALAR"},{"bufferView":20,"componentType":5126,"count":264,"max":[0.10625000298023224,0.17812499403953552,0.10625000298023224],"min":[-0.10625000298023224,-0.35624998807907104,-0.10625000298023224],"type":"VEC3"},{"bufferView":21,"componentType":5126,"count":264,"max":[0.9981904625892639,1,0.9981904625892639],"min":[-0.9981904625892639,-1,-0.9981904625892639],"type":"VEC3"},{"bufferView":22,"componentType":5126,"count":264,"max":[0.7126978039741516,0.7914565801620483],"min":[0.0015887500485405326,0],"type":"VEC2"},{"bufferView":23,"componentType":5123,"count":396,"max":[263],"min":[0],"type":"SCALAR"},{"bufferView":24,"componentType":5126,"count":138,"max":[0.16058875620365143,0.1875,0.15625],"min":[-0.16907624900341034,0,-0.1734243780374527],"type":"VEC3"},{"bufferView":25,"componentType":5126,"count":138,"max":[0.9749290943145752,1,0.9805806875228882],"min":[-0.9749290943145752,-1,-1],"type":"VEC3"},{"bufferView":26,"componentType":5126,"count":138,"max":[0.84375,0.9375],"min":[0,0],"type":"VEC2"},{"bufferView":27,"componentType":5123,"count":204,"max":[137],"min":[0],"type":"SCALAR"},{"bufferView":28,"componentType":5126,"count":264,"max":[0.10625000298023224,0.22499999403953552,0.10625000298023224],"min":[-0.10625000298023224,-0.35624998807907104,-0.10625000298023224],"type":"VEC3"},{"bufferView":29,"componentType":5126,"count":264,"max":[1,1,1],"min":[-1,-1,-1],"type":"VEC3"},{"bufferView":30,"componentType":5126,"count":264,"max":[0.9031462669372559,0.90625],"min":[0.00047812500270083547,0],"type":"VEC2"},{"bufferView":31,"componentType":5123,"count":396,"max":[263],"min":[0],"type":"SCALAR"},{"bufferView":32,"componentType":5126,"count":264,"max":[0.10625000298023224,0.17812499403953552,0.10625000298023224],"min":[-0.10625000298023224,-0.35624998807907104,-0.10625000298023224],"type":"VEC3"},{"bufferView":33,"componentType":5126,"count":264,"max":[0.9981904625892639,1,0.9981904625892639],"min":[-0.9981904625892639,-1,-0.9981904625892639],"type":"VEC3"},{"bufferView":34,"componentType":5126,"count":264,"max":[0.7126978039741516,0.7914565801620483],"min":[0.0015887500485405326,0],"type":"VEC2"},{"bufferView":35,"componentType":5123,"count":396,"max":[263],"min":[0],"type":"SCALAR"},{"bufferView":36,"componentType":5126,"count":138,"max":[0.16907624900341034,0.1875,0.15625],"min":[-0.16058875620365143,0,-0.1734243780374527],"type":"VEC3"},{"bufferView":37,"componentType":5126,"count":138,"max":[0.9749290943145752,1,0.9805806875228882],"min":[-0.9749290943145752,-1,-1],"type":"VEC3"},{"bufferView":38,"componentType":5126,"count":138,"max":[0.84375,0.9375],"min":[0,0],"type":"VEC2"},{"bufferView":39,"componentType":5123,"count":204,"max":[137],"min":[0],"type":"SCALAR"},{"bufferView":40,"componentType":5126,"count":148,"max":[0.35669437050819397,0.5,0.25],"min":[-0.35669437050819397,-0.24140812456607819,-0.375],"type":"VEC3"},{"bufferView":41,"componentType":5126,"count":148,"max":[0.9936929941177368,0.9805806875228882,0.99619460105896],"min":[-0.9936929941177368,-1,-0.9997578859329224],"type":"VEC3"},{"bufferView":42,"componentType":5126,"count":148,"max":[0.515625,0.484375],"min":[0,0],"type":"VEC2"},{"bufferView":43,"componentType":5123,"count":204,"max":[147],"min":[0],"type":"SCALAR"},{"bufferView":44,"componentType":5126,"count":128,"max":[0.11249999701976776,0.1875,0.11249999701976776],"min":[-0.11249999701976776,0,-0.11249999701976776],"type":"VEC3"},{"bufferView":45,"componentType":5126,"count":128,"max":[1,1,1],"min":[-1,-1,-1],"type":"VEC3"},{"bufferView":46,"componentType":5126,"count":128,"max":[0.75,0.9375],"min":[0,0],"type":"VEC2"},{"bufferView":47,"componentType":5123,"count":192,"max":[127],"min":[0],"type":"SCALAR"},{"bufferView":48,"componentType":5126,"count":312,"max":[0.10625000298023224,0.17812499403953552,0.10625000298023224],"min":[-0.10625000298023224,-0.35624998807907104,-0.10625000298023224],"type":"VEC3"},{"bufferView":49,"componentType":5126,"count":312,"max":[1,1,1],"min":[-1,-1,-1],"type":"VEC3"},{"bufferView":50,"componentType":5126,"count":312,"max":[0.7119796872138977,0.703125],"min":[0.0074812499806284904,0],"type":"VEC2"},{"bufferView":51,"componentType":5123,"count":468,"max":[311],"min":[0],"type":"SCALAR"},{"bufferView":52,"componentType":5126,"count":192,"max":[0.13124999403953552,0.16249999403953552,0.14374999701976776],"min":[-0.125,-0.35624998807907104,-0.11874999850988388],"type":"VEC3"},{"bufferView":53,"componentType":5126,"count":192,"max":[0.9953500032424927,1,0.9842340350151062],"min":[-0.9953500032424927,-1,-0.991227924823761],"type":"VEC3"},{"bufferView":54,"componentType":5126,"count":192,"max":[0.589062511920929,0.6156250238418579],"min":[0,0],"type":"VEC2"},{"bufferView":55,"componentType":5123,"count":288,"max":[191],"min":[0],"type":"SCALAR"},{"bufferView":56,"componentType":5126,"count":318,"max":[0.125,0.265625,0.125],"min":[-0.125,0.0625,-0.14374999701976776],"type":"VEC3"},{"bufferView":57,"componentType":5126,"count":318,"max":[1,1,1],"min":[-1,-1,-0.9953170418739319],"type":"VEC3"},{"bufferView":58,"componentType":5126,"count":318,"max":[0.6695079803466797,0.6978453397750854],"min":[0,0],"type":"VEC2"},{"bufferView":59,"componentType":5123,"count":474,"max":[317],"min":[0],"type":"SCALAR"},{"bufferView":60,"componentType":5126,"count":114,"max":[0.10000000149011612,0.11874999850988388,0.21875],"min":[-0.10312499850988388,0,0],"type":"VEC3"},{"bufferView":61,"componentType":5126,"count":114,"max":[1,0.9889363646507263,0.9635179042816162],"min":[-1,-1,-1],"type":"VEC3"},{"bufferView":62,"componentType":5126,"count":114,"max":[0.71875,0.6953125],"min":[0.007427031174302101,0.0078125],"type":"VEC2"},{"bufferView":63,"componentType":5123,"count":168,"max":[113],"min":[0],"type":"SCALAR"},{"bufferView":64,"componentType":5126,"count":192,"max":[0.125,0.16249999403953552,0.14374999701976776],"min":[-0.13124999403953552,-0.35624998807907104,-0.11874999850988388],"type":"VEC3"},{"bufferView":65,"componentType":5126,"count":192,"max":[0.9953500032424927,1,0.9842340350151062],"min":[-0.9953500032424927,-1,-0.991227924823761],"type":"VEC3"},{"bufferView":66,"componentType":5126,"count":192,"max":[0.71875,0.6312500238418579],"min":[0.140625,0.005134403705596924],"type":"VEC2"},{"bufferView":67,"componentType":5123,"count":288,"max":[191],"min":[0],"type":"SCALAR"},{"bufferView":68,"componentType":5126,"count":318,"max":[0.125,0.265625,0.125],"min":[-0.125,0.0625,-0.14374999701976776],"type":"VEC3"},{"bufferView":69,"componentType":5126,"count":318,"max":[1,1,1],"min":[-1,-1,-0.9953170418739319],"type":"VEC3"},{"bufferView":70,"componentType":5126,"count":318,"max":[0.6710726618766785,0.6978453397750854],"min":[0.359375,0.15625],"type":"VEC2"},{"bufferView":71,"componentType":5123,"count":474,"max":[317],"min":[0],"type":"SCALAR"},{"bufferView":72,"componentType":5126,"count":114,"max":[0.10312499850988388,0.11874999850988388,0.21875],"min":[-0.10000000149011612,0,0],"type":"VEC3"},{"bufferView":73,"componentType":5126,"count":114,"max":[1,0.9889363646507263,0.9635179042816162],"min":[-1,-1,-1],"type":"VEC3"},{"bufferView":74,"componentType":5126,"count":114,"max":[0.71875,0.7015625238418579],"min":[0.22551874816417694,0.078125],"type":"VEC2"},{"bufferView":75,"componentType":5123,"count":168,"max":[113],"min":[0],"type":"SCALAR"},{"bufferView":76,"componentType":5126,"count":312,"max":[0.10625000298023224,0.17812499403953552,0.10625000298023224],"min":[-0.10625000298023224,-0.35624998807907104,-0.10625000298023224],"type":"VEC3"},{"bufferView":77,"componentType":5126,"count":312,"max":[1,1,1],"min":[-1,-1,-1],"type":"VEC3"},{"bufferView":78,"componentType":5126,"count":312,"max":[0.7119796872138977,0.7560609579086304],"min":[0.078125,0.21875],"type":"VEC2"},{"bufferView":79,"componentType":5123,"count":468,"max":[311],"min":[0],"type":"SCALAR"},{"bufferView":80,"componentType":5126,"count":128,"max":[0.25,0.375,0.21875],"min":[-0.25,0.03125,-0.25],"type":"VEC3"},{"bufferView":81,"componentType":5126,"count":128,"max":[0.9874406456947327,1,0.9922778606414795],"min":[-0.9874406456947327,-0.9518577456474304,-0.9615239500999451],"type":"VEC3"},{"bufferView":82,"componentType":5126,"count":128,"max":[0.35733547806739807,0.671875],"min":[0,0],"type":"VEC2"},{"bufferView":83,"componentType":5123,"count":192,"max":[127],"min":[0],"type":"SCALAR"}],"materials":[{"pbrMetallicRoughness":{"metallicFactor":0,"roughnessFactor":1,"baseColorTexture":{"index":0}},"alphaMode":"MASK","alphaCutoff":0.05,"doubleSided":true},{"pbrMetallicRoughness":{"metallicFactor":0,"roughnessFactor":1,"baseColorTexture":{"index":1}},"alphaMode":"MASK","alphaCutoff":0.05,"doubleSided":true},{"pbrMetallicRoughness":{"metallicFactor":0,"roughnessFactor":1,"baseColorTexture":{"index":2}},"alphaMode":"MASK","alphaCutoff":0.05,"doubleSided":true},{"pbrMetallicRoughness":{"metallicFactor":0,"roughnessFactor":1,"baseColorTexture":{"index":3}},"alphaMode":"MASK","alphaCutoff":0.05,"doubleSided":true},{"pbrMetallicRoughness":{"metallicFactor":0,"roughnessFactor":1,"baseColorTexture":{"index":4}},"alphaMode":"MASK","alphaCutoff":0.05,"doubleSided":true}],"textures":[{"sampler":0,"source":0,"name":"face.png"},{"sampler":1,"source":1,"name":"armTexture.png"},{"sampler":2,"source":2,"name":"chestTexture.png"},{"sampler":3,"source":3,"name":"neckTexture.png"},{"sampler":4,"source":4,"name":"pantsTexture.png"}],"samplers":[{"magFilter":9728,"minFilter":9728,"wrapS":33071,"wrapT":33071},{"magFilter":9728,"minFilter":9728,"wrapS":33071,"wrapT":33071},{"magFilter":9728,"minFilter":9728,"wrapS":33071,"wrapT":33071},{"magFilter":9728,"minFilter":9728,"wrapS":33071,"wrapT":33071},{"magFilter":9728,"minFilter":9728,"wrapS":33071,"wrapT":33071}],"images":[{"mimeType":"image/png","uri":"data:image/png;base64,"},{"mimeType":"image/png","uri":"data:image/png;base64,"},{"mimeType":"image/png","uri":"data:image/png;base64,"},{"mimeType":"image/png","uri":"data:image/png;base64,"},{"mimeType":"image/png","uri":"data:image/png;base64,"}],"meshes":[{"primitives":[{"mode":4,"attributes":{"POSITION":0,"NORMAL":1,"TEXCOORD_0":2},"indices":3,"material":0}]},{"primitives":[{"mode":4,"attributes":{"POSITION":4,"NORMAL":5,"TEXCOORD_0":6},"indices":7,"material":0}]},{"primitives":[{"mode":4,"attributes":{"POSITION":8,"NORMAL":9,"TEXCOORD_0":10},"indices":11,"material":0}]},{"primitives":[{"mode":4,"attributes":{"POSITION":12,"NORMAL":13,"TEXCOORD_0":14},"indices":15,"material":0}]},{"primitives":[{"mode":4,"attributes":{"POSITION":16,"NORMAL":17,"TEXCOORD_0":18},"indices":19,"material":1}]},{"primitives":[{"mode":4,"attributes":{"POSITION":20,"NORMAL":21,"TEXCOORD_0":22},"indices":23,"material":1}]},{"primitives":[{"mode":4,"attributes":{"POSITION":24,"NORMAL":25,"TEXCOORD_0":26},"indices":27,"material":1}]},{"primitives":[{"mode":4,"attributes":{"POSITION":28,"NORMAL":29,"TEXCOORD_0":30},"indices":31,"material":1}]},{"primitives":[{"mode":4,"attributes":{"POSITION":32,"NORMAL":33,"TEXCOORD_0":34},"indices":35,"material":1}]},{"primitives":[{"mode":4,"attributes":{"POSITION":36,"NORMAL":37,"TEXCOORD_0":38},"indices":39,"material":1}]},{"primitives":[{"mode":4,"attributes":{"POSITION":40,"NORMAL":41,"TEXCOORD_0":42},"indices":43,"material":2}]},{"primitives":[{"mode":4,"attributes":{"POSITION":44,"NORMAL":45,"TEXCOORD_0":46},"indices":47,"material":3}]},{"primitives":[{"mode":4,"attributes":{"POSITION":48,"NORMAL":49,"TEXCOORD_0":50},"indices":51,"material":4}]},{"primitives":[{"mode":4,"attributes":{"POSITION":52,"NORMAL":53,"TEXCOORD_0":54},"indices":55,"material":4}]},{"primitives":[{"mode":4,"attributes":{"POSITION":56,"NORMAL":57,"TEXCOORD_0":58},"indices":59,"material":4}]},{"primitives":[{"mode":4,"attributes":{"POSITION":60,"NORMAL":61,"TEXCOORD_0":62},"indices":63,"material":4}]},{"primitives":[{"mode":4,"attributes":{"POSITION":64,"NORMAL":65,"TEXCOORD_0":66},"indices":67,"material":4}]},{"primitives":[{"mode":4,"attributes":{"POSITION":68,"NORMAL":69,"TEXCOORD_0":70},"indices":71,"material":4}]},{"primitives":[{"mode":4,"attributes":{"POSITION":72,"NORMAL":73,"TEXCOORD_0":74},"indices":75,"material":4}]},{"primitives":[{"mode":4,"attributes":{"POSITION":76,"NORMAL":77,"TEXCOORD_0":78},"indices":79,"material":4}]},{"primitives":[{"mode":4,"attributes":{"POSITION":80,"NORMAL":81,"TEXCOORD_0":82},"indices":83,"material":4}]}]}