{"asset":{"version":"2.0","generator":"Blockbench 4.12.6 glTF exporter"},"scenes":[{"nodes":[24],"name":"blockbench_export"}],"scene":0,"nodes":[{"translation":[0,-0.25625,0],"name":"pot","mesh":0},{"translation":[0,0.5,0],"name":"bone"},{"rotation":[0,0,-0.24615329302899303,0.9692309097067544],"translation":[0.1125,0,0],"name":"beveled_cuboid","mesh":1},{"rotation":[-0.024249942209697395,-0.5041381826916269,-0.20089903571990636,0.839580973165794],"name":"bigLeaf","children":[2]},{"translation":[0,0.5,0],"name":"beveled_cuboid","mesh":2},{"translation":[0,-0.45000000000000007,0],"name":"leaf","children":[4]},{"translation":[-0.125,0.5,0],"name":"beveled_cuboid","mesh":3},{"rotation":[0.0926068499626197,-0.6016763654895714,-0.12068759657018424,0.7841199057448885],"translation":[0,-0.45000000000000007,0],"name":"leaf8","children":[6]},{"rotation":[0,0.3826834323650898,0,0.9238795325112867],"translation":[0.10664701222115419,-0.03646578479587759,-0.062499999999999695],"name":"beveled_cuboid","mesh":4},{"rotation":[-0.06620713042121867,0.827067518750874,-0.020923546453975372,0.5577975802317976],"translation":[0.0625,0.04999999999999993,0.0625],"name":"leaf9","children":[8]},{"translation":[-0.0125,0.11875000000000002,0],"name":"beveled_cuboid"},{"rotation":[0,0,-0.24615329302899303,0.9692309097067544],"translation":[0.1125,0,0],"name":"beveled_cuboid","mesh":5},{"rotation":[0,-0.8870108331782217,0,0.46174861323503386],"translation":[0,0.04999999999999993,0],"name":"midLeaf","children":[10,11]},{"rotation":[0,0,-0.24615329302899303,0.9692309097067544],"translation":[0.1125,0,0],"name":"beveled_cuboid","mesh":6},{"rotation":[-0.05801328415089215,0.885111674896197,-0.03019980422325047,0.4607599740096291],"translation":[0,0.04999999999999993,0],"name":"midLeaf2","children":[13]},{"rotation":[0,0,-0.24615329302899303,0.9692309097067544],"translation":[0.1125,0,0],"name":"beveled_cuboid","mesh":7},{"rotation":[-0.05325667469598416,-0.005832554470231101,-0.07134305743402,0.9960119859041076],"translation":[0,0.04999999999999993,0],"name":"midLeaf3","children":[15]},{"rotation":[-0.19509032201612833,0.9807852804032304,-7.15550311822179e-17,-4.586481416646638e-17],"name":"leaf4"},{"rotation":[0,0,-0.24615329302899303,0.9692309097067544],"translation":[0.1125,0,0],"name":"beveled_cuboid","mesh":8},{"rotation":[-0.19509032201612833,0.9807852804032304,-7.15550311822179e-17,-4.586481416646638e-17],"name":"bgiLeaf1","children":[17,18]},{"rotation":[0.15640704374652348,0.43722216272239844,-0.1283951670306761,0.8762923588471978],"name":"leaf5"},{"rotation":[0,0,-0.24615329302899303,0.9692309097067544],"translation":[0.1125,0,0],"name":"beveled_cuboid","mesh":9},{"rotation":[0.15640704374652348,0.43722216272239844,-0.1283951670306761,0.8762923588471978],"name":"bigLeaf2","children":[20,21]},{"translation":[0,0.45000000000000007,0],"name":"Leaves","children":[3,5,7,9,12,14,16,19,22]},{"children":[0,1,23]}],"bufferViews":[{"buffer":0,"byteOffset":0,"byteLength":7776,"target":34962,"byteStride":12},{"buffer":0,"byteOffset":7776,"byteLength":7776,"target":34962,"byteStride":12},{"buffer":0,"byteOffset":15552,"byteLength":5184,"target":34962,"byteStride":8},{"buffer":0,"byteOffset":20736,"byteLength":1920,"target":34963},{"buffer":0,"byteOffset":22656,"byteLength":2304,"target":34962,"byteStride":12},{"buffer":0,"byteOffset":24960,"byteLength":2304,"target":34962,"byteStride":12},{"buffer":0,"byteOffset":27264,"byteLength":1536,"target":34962,"byteStride":8},{"buffer":0,"byteOffset":28800,"byteLength":528,"target":34963},{"buffer":0,"byteOffset":29328,"byteLength":2304,"target":34962,"byteStride":12},{"buffer":0,"byteOffset":31632,"byteLength":2304,"target":34962,"byteStride":12},{"buffer":0,"byteOffset":33936,"byteLength":1536,"target":34962,"byteStride":8},{"buffer":0,"byteOffset":35472,"byteLength":528,"target":34963},{"buffer":0,"byteOffset":36000,"byteLength":2304,"target":34962,"byteStride":12},{"buffer":0,"byteOffset":38304,"byteLength":2304,"target":34962,"byteStride":12},{"buffer":0,"byteOffset":40608,"byteLength":1536,"target":34962,"byteStride":8},{"buffer":0,"byteOffset":42144,"byteLength":528,"target":34963},{"buffer":0,"byteOffset":42672,"byteLength":2304,"target":34962,"byteStride":12},{"buffer":0,"byteOffset":44976,"byteLength":2304,"target":34962,"byteStride":12},{"buffer":0,"byteOffset":47280,"byteLength":1536,"target":34962,"byteStride":8},{"buffer":0,"byteOffset":48816,"byteLength":528,"target":34963},{"buffer":0,"byteOffset":49344,"byteLength":2304,"target":34962,"byteStride":12},{"buffer":0,"byteOffset":51648,"byteLength":2304,"target":34962,"byteStride":12},{"buffer":0,"byteOffset":53952,"byteLength":1536,"target":34962,"byteStride":8},{"buffer":0,"byteOffset":55488,"byteLength":528,"target":34963},{"buffer":0,"byteOffset":56016,"byteLength":2304,"target":34962,"byteStride":12},{"buffer":0,"byteOffset":58320,"byteLength":2304,"target":34962,"byteStride":12},{"buffer":0,"byteOffset":60624,"byteLength":1536,"target":34962,"byteStride":8},{"buffer":0,"byteOffset":62160,"byteLength":528,"target":34963},{"buffer":0,"byteOffset":62688,"byteLength":2304,"target":34962,"byteStride":12},{"buffer":0,"byteOffset":64992,"byteLength":2304,"target":34962,"byteStride":12},{"buffer":0,"byteOffset":67296,"byteLength":1536,"target":34962,"byteStride":8},{"buffer":0,"byteOffset":68832,"byteLength":528,"target":34963},{"buffer":0,"byteOffset":69360,"byteLength":2304,"target":34962,"byteStride":12},{"buffer":0,"byteOffset":71664,"byteLength":2304,"target":34962,"byteStride":12},{"buffer":0,"byteOffset":73968,"byteLength":1536,"target":34962,"byteStride":8},{"buffer":0,"byteOffset":75504,"byteLength":528,"target":34963},{"buffer":0,"byteOffset":76032,"byteLength":2304,"target":34962,"byteStride":12},{"buffer":0,"byteOffset":78336,"byteLength":2304,"target":34962,"byteStride":12},{"buffer":0,"byteOffset":80640,"byteLength":1536,"target":34962,"byteStride":8},{"buffer":0,"byteOffset":82176,"byteLength":528,"target":34963}],"buffers":[{"byteLength":82704,"uri":"data:application/octet-stream;base64,"}],"accessors":[{"bufferView":0,"componentType":5126,"count":648,"max":[0.31562501192092896,0.8125,0.31562501192092896],"min":[-0.31562501192092896,0.1875,-0.31562501192092896],"type":"VEC3"},{"bufferView":1,"componentType":5126,"count":648,"max":[1,1,1],"min":[-1,-1,-1],"type":"VEC3"},{"bufferView":2,"componentType":5126,"count":648,"max":[0.5289015769958496,0.5625],"min":[0,0],"type":"VEC2"},{"bufferView":3,"componentType":5123,"count":960,"max":[647],"min":[0],"type":"SCALAR"},{"bufferView":4,"componentType":5126,"count":192,"max":[0.3993875980377197,0.5777191519737244,0.21250000596046448],"min":[-0.15000000596046448,-0.26249998807907104,-0.21250000596046448],"type":"VEC3"},{"bufferView":5,"componentType":5126,"count":192,"max":[1,1,1],"min":[-1,-1,-1],"type":"VEC3"},{"bufferView":6,"componentType":5126,"count":192,"max":[0.9302963614463806,0.8537734746932983],"min":[0,0],"type":"VEC2"},{"bufferView":7,"componentType":5123,"count":264,"max":[191],"min":[0],"type":"SCALAR"},{"bufferView":8,"componentType":5126,"count":192,"max":[0.2743875980377197,0.45271915197372437,0.08749999850988388],"min":[-0.02500000037252903,-0.13750000298023224,-0.08749999850988388],"type":"VEC3"},{"bufferView":9,"componentType":5126,"count":192,"max":[1,1,1],"min":[-1,-1,-1],"type":"VEC3"},{"bufferView":10,"componentType":5126,"count":192,"max":[0.9211110472679138,0.984375],"min":[0,0],"type":"VEC2"},{"bufferView":11,"componentType":5123,"count":264,"max":[191],"min":[0],"type":"SCALAR"},{"bufferView":12,"componentType":5126,"count":192,"max":[0.2743875980377197,0.45271915197372437,0.08749999850988388],"min":[-0.02500000037252903,-0.13750000298023224,-0.08749999850988388],"type":"VEC3"},{"bufferView":13,"componentType":5126,"count":192,"max":[1,1,1],"min":[-1,-1,-1],"type":"VEC3"},{"bufferView":14,"componentType":5126,"count":192,"max":[0.9211110472679138,0.984375],"min":[0.15625,0.005945324897766113],"type":"VEC2"},{"bufferView":15,"componentType":5123,"count":264,"max":[191],"min":[0],"type":"SCALAR"},{"bufferView":16,"componentType":5126,"count":192,"max":[0.2743875980377197,0.45271915197372437,0.08749999850988388],"min":[-0.02500000037252903,-0.13750000298023224,-0.08749999850988388],"type":"VEC3"},{"bufferView":17,"componentType":5126,"count":192,"max":[1,1,1],"min":[-1,-1,-1],"type":"VEC3"},{"bufferView":18,"componentType":5126,"count":192,"max":[0.9211110472679138,0.984375],"min":[0.15625,0],"type":"VEC2"},{"bufferView":19,"componentType":5123,"count":264,"max":[191],"min":[0],"type":"SCALAR"},{"bufferView":20,"componentType":5126,"count":192,"max":[0.3368875980377197,0.5152191519737244,0.15000000596046448],"min":[-0.08749999850988388,-0.20000000298023224,-0.15000000596046448],"type":"VEC3"},{"bufferView":21,"componentType":5126,"count":192,"max":[1,1,1],"min":[-1,-1,-1],"type":"VEC3"},{"bufferView":22,"componentType":5126,"count":192,"max":[0.9336801171302795,0.921875],"min":[0.03125,0],"type":"VEC2"},{"bufferView":23,"componentType":5123,"count":264,"max":[191],"min":[0],"type":"SCALAR"},{"bufferView":24,"componentType":5126,"count":192,"max":[0.3368875980377197,0.5152191519737244,0.15000000596046448],"min":[-0.08749999850988388,-0.20000000298023224,-0.15000000596046448],"type":"VEC3"},{"bufferView":25,"componentType":5126,"count":192,"max":[1,1,1],"min":[-1,-1,-1],"type":"VEC3"},{"bufferView":26,"componentType":5126,"count":192,"max":[0.9336801171302795,0.921875],"min":[0.0625,0.006510913372039795],"type":"VEC2"},{"bufferView":27,"componentType":5123,"count":264,"max":[191],"min":[0],"type":"SCALAR"},{"bufferView":28,"componentType":5126,"count":192,"max":[0.3368875980377197,0.5152191519737244,0.15000000596046448],"min":[-0.08749999850988388,-0.20000000298023224,-0.15000000596046448],"type":"VEC3"},{"bufferView":29,"componentType":5126,"count":192,"max":[1,1,1],"min":[-1,-1,-1],"type":"VEC3"},{"bufferView":30,"componentType":5126,"count":192,"max":[0.9335068464279175,0.921875],"min":[0.06674062460660934,0],"type":"VEC2"},{"bufferView":31,"componentType":5123,"count":264,"max":[191],"min":[0],"type":"SCALAR"},{"bufferView":32,"componentType":5126,"count":192,"max":[0.3993875980377197,0.5777191519737244,0.21250000596046448],"min":[-0.15000000596046448,-0.26249998807907104,-0.21250000596046448],"type":"VEC3"},{"bufferView":33,"componentType":5126,"count":192,"max":[1,1,1],"min":[-1,-1,-1],"type":"VEC3"},{"bufferView":34,"componentType":5126,"count":192,"max":[0.9302963614463806,0.8382728695869446],"min":[0,0.009067893028259277],"type":"VEC2"},{"bufferView":35,"componentType":5123,"count":264,"max":[191],"min":[0],"type":"SCALAR"},{"bufferView":36,"componentType":5126,"count":192,"max":[0.3993875980377197,0.5777191519737244,0.21250000596046448],"min":[-0.15000000596046448,-0.26249998807907104,-0.21250000596046448],"type":"VEC3"},{"bufferView":37,"componentType":5126,"count":192,"max":[1,1,1],"min":[-1,-1,-1],"type":"VEC3"},{"bufferView":38,"componentType":5126,"count":192,"max":[0.90625,0.921875],"min":[0,0],"type":"VEC2"},{"bufferView":39,"componentType":5123,"count":264,"max":[191],"min":[0],"type":"SCALAR"}],"materials":[{"pbrMetallicRoughness":{"metallicFactor":0,"roughnessFactor":1,"baseColorTexture":{"index":0}},"alphaMode":"MASK","alphaCutoff":0.05,"doubleSided":true},{"pbrMetallicRoughness":{"metallicFactor":0,"roughnessFactor":1,"baseColorTexture":{"index":1}},"alphaMode":"MASK","alphaCutoff":0.05,"doubleSided":true}],"textures":[{"sampler":0,"source":0,"name":"prop_plant_potTexture"},{"sampler":1,"source":1,"name":"prop_plant_plantTexture"}],"samplers":[{"magFilter":9728,"minFilter":9728,"wrapS":33071,"wrapT":33071},{"magFilter":9728,"minFilter":9728,"wrapS":33071,"wrapT":33071}],"images":[{"mimeType":"image/png","uri":"data:image/png;base64,"},{"mimeType":"image/png","uri":"data:image/png;base64,"}],"meshes":[{"primitives":[{"mode":4,"attributes":{"POSITION":0,"NORMAL":1,"TEXCOORD_0":2},"indices":3,"material":0}]},{"primitives":[{"mode":4,"attributes":{"POSITION":4,"NORMAL":5,"TEXCOORD_0":6},"indices":7,"material":1}]},{"primitives":[{"mode":4,"attributes":{"POSITION":8,"NORMAL":9,"TEXCOORD_0":10},"indices":11,"material":1}]},{"primitives":[{"mode":4,"attributes":{"POSITION":12,"NORMAL":13,"TEXCOORD_0":14},"indices":15,"material":1}]},{"primitives":[{"mode":4,"attributes":{"POSITION":16,"NORMAL":17,"TEXCOORD_0":18},"indices":19,"material":1}]},{"primitives":[{"mode":4,"attributes":{"POSITION":20,"NORMAL":21,"TEXCOORD_0":22},"indices":23,"material":1}]},{"primitives":[{"mode":4,"attributes":{"POSITION":24,"NORMAL":25,"TEXCOORD_0":26},"indices":27,"material":1}]},{"primitives":[{"mode":4,"attributes":{"POSITION":28,"NORMAL":29,"TEXCOORD_0":30},"indices":31,"material":1}]},{"primitives":[{"mode":4,"attributes":{"POSITION":32,"NORMAL":33,"TEXCOORD_0":34},"indices":35,"material":1}]},{"primitives":[{"mode":4,"attributes":{"POSITION":36,"NORMAL":37,"TEXCOORD_0":38},"indices":39,"material":1}]}]}