{"asset":{"version":"2.0","generator":"Blockbench 5.0.2 glTF exporter"},"scenes":[{"nodes":[0,1],"name":"blockbench_export"}],"scene":0,"nodes":[{"name":"potion","mesh":0},{"name":"sphere","mesh":1}],"bufferViews":[{"buffer":0,"byteOffset":0,"byteLength":7776,"target":34962,"byteStride":12},{"buffer":0,"byteOffset":7776,"byteLength":7776,"target":34962,"byteStride":12},{"buffer":0,"byteOffset":15552,"byteLength":5184,"target":34962,"byteStride":8},{"buffer":0,"byteOffset":20736,"byteLength":1872,"target":34963},{"buffer":0,"byteOffset":22608,"byteLength":3168,"target":34962,"byteStride":12},{"buffer":0,"byteOffset":25776,"byteLength":3168,"target":34962,"byteStride":12},{"buffer":0,"byteOffset":28944,"byteLength":2112,"target":34962,"byteStride":8},{"buffer":0,"byteOffset":31056,"byteLength":720,"target":34963}],"buffers":[{"byteLength":31776,"uri":"data:application/octet-stream;base64,"}],"accessors":[{"bufferView":0,"componentType":5126,"count":648,"max":[0.5,1.256250023841858,0.5],"min":[-0.5,-0.5,-0.5],"type":"VEC3"},{"bufferView":1,"componentType":5126,"count":648,"max":[0.9999971389770508,0.9996288418769836,0.9999971389770508],"min":[-0.9999971389770508,-0.9659256339073181,-0.9999971389770508],"type":"VEC3"},{"bufferView":2,"componentType":5126,"count":648,"max":[0.8062501549720764,0.734375],"min":[0.00046768016181886196,0],"type":"VEC2"},{"bufferView":3,"componentType":5123,"count":936,"max":[647],"min":[0],"type":"SCALAR"},{"bufferView":4,"componentType":5126,"count":264,"max":[0.3125,0.3125,0.3125],"min":[-0.3125,-0.3125,-0.3125],"type":"VEC3"},{"bufferView":5,"componentType":5126,"count":264,"max":[0.9659258127212524,0.9659258127212524,0.9659258127212524],"min":[-0.9659258127212524,-0.9659258127212524,-0.9659258127212524],"type":"VEC3"},{"bufferView":6,"componentType":5126,"count":264,"max":[0.8959313631057739,0.7497611045837402],"min":[0.008119509555399418,0],"type":"VEC2"},{"bufferView":7,"componentType":5123,"count":360,"max":[263],"min":[0],"type":"SCALAR"}],"materials":[{"pbrMetallicRoughness":{"metallicFactor":0,"roughnessFactor":1,"baseColorTexture":{"index":0}},"alphaMode":"MASK","alphaCutoff":0.05,"doubleSided":true},{"pbrMetallicRoughness":{"metallicFactor":0,"roughnessFactor":1,"baseColorTexture":{"index":1}},"alphaMode":"MASK","alphaCutoff":0.05,"doubleSided":true}],"textures":[{"sampler":0,"source":0,"name":"potion"},{"sampler":1,"source":1,"name":"blueSpell.png"}],"samplers":[{"magFilter":9728,"minFilter":9728,"wrapS":33071,"wrapT":33071},{"magFilter":9728,"minFilter":9728,"wrapS":33071,"wrapT":33071}],"images":[{"mimeType":"image/png","uri":"data:image/png;base64,"},{"mimeType":"image/png","uri":"data:image/png;base64,"}],"meshes":[{"primitives":[{"mode":4,"attributes":{"POSITION":0,"NORMAL":1,"TEXCOORD_0":2},"indices":3,"material":0}]},{"primitives":[{"mode":4,"attributes":{"POSITION":4,"NORMAL":5,"TEXCOORD_0":6},"indices":7,"material":1}]}]}