{"asset":{"version":"2.0","generator":"Blockbench 4.12.6 glTF exporter"},"scenes":[{"nodes":[13],"name":"blockbench_export"}],"scene":0,"nodes":[{"translation":[0,0.375,0],"name":"cube","mesh":0},{"translation":[0,0.4375,0],"name":"sphere","mesh":1},{"translation":[0,0.5750000000000001,0],"name":"face","mesh":2},{"name":"body","mesh":3},{"rotation":[0.5,0.4999999999999999,-0.5,0.5000000000000001],"translation":[0,0.46249999999999936,0],"name":"ArmR","mesh":4},{"name":"ArmR","children":[4]},{"rotation":[0.5,-0.4999999999999999,0.5,0.5000000000000001],"translation":[0,0.46249999999999936,0],"name":"ArmL","mesh":5},{"name":"ArmL","children":[6]},{"translation":[0.125,0.0625,0],"name":"legR","mesh":6},{"translation":[-0.125,0.0625,0],"name":"legL","mesh":7},{"translation":[0,-0.36249999999999993,0],"name":"Legs","children":[8,9]},{"name":"Body","children":[3,5,7,10]},{"translation":[0,0.36249999999999993,0],"name":"Body2","children":[2,11]},{"children":[0,1,12]}],"bufferViews":[{"buffer":0,"byteOffset":0,"byteLength":8160,"target":34962,"byteStride":12},{"buffer":0,"byteOffset":8160,"byteLength":8160,"target":34962,"byteStride":12},{"buffer":0,"byteOffset":16320,"byteLength":5440,"target":34962,"byteStride":8},{"buffer":0,"byteOffset":21760,"byteLength":2040,"target":34963},{"buffer":0,"byteOffset":23800,"byteLength":3132,"target":34962,"byteStride":12},{"buffer":0,"byteOffset":26932,"byteLength":3132,"target":34962,"byteStride":12},{"buffer":0,"byteOffset":30064,"byteLength":2088,"target":34962,"byteStride":8},{"buffer":0,"byteOffset":32152,"byteLength":716,"target":34963},{"buffer":0,"byteOffset":32868,"byteLength":1536,"target":34962,"byteStride":12},{"buffer":0,"byteOffset":34404,"byteLength":1536,"target":34962,"byteStride":12},{"buffer":0,"byteOffset":35940,"byteLength":1024,"target":34962,"byteStride":8},{"buffer":0,"byteOffset":36964,"byteLength":360,"target":34963},{"buffer":0,"byteOffset":37324,"byteLength":1152,"target":34962,"byteStride":12},{"buffer":0,"byteOffset":38476,"byteLength":1152,"target":34962,"byteStride":12},{"buffer":0,"byteOffset":39628,"byteLength":768,"target":34962,"byteStride":8},{"buffer":0,"byteOffset":40396,"byteLength":264,"target":34963},{"buffer":0,"byteOffset":40660,"byteLength":1152,"target":34962,"byteStride":12},{"buffer":0,"byteOffset":41812,"byteLength":1152,"target":34962,"byteStride":12},{"buffer":0,"byteOffset":42964,"byteLength":768,"target":34962,"byteStride":8},{"buffer":0,"byteOffset":43732,"byteLength":264,"target":34963},{"buffer":0,"byteOffset":43996,"byteLength":1152,"target":34962,"byteStride":12},{"buffer":0,"byteOffset":45148,"byteLength":1152,"target":34962,"byteStride":12},{"buffer":0,"byteOffset":46300,"byteLength":768,"target":34962,"byteStride":8},{"buffer":0,"byteOffset":47068,"byteLength":264,"target":34963},{"buffer":0,"byteOffset":47332,"byteLength":1152,"target":34962,"byteStride":12},{"buffer":0,"byteOffset":48484,"byteLength":1152,"target":34962,"byteStride":12},{"buffer":0,"byteOffset":49636,"byteLength":768,"target":34962,"byteStride":8},{"buffer":0,"byteOffset":50404,"byteLength":264,"target":34963},{"buffer":0,"byteOffset":50668,"byteLength":1152,"target":34962,"byteStride":12},{"buffer":0,"byteOffset":51820,"byteLength":1152,"target":34962,"byteStride":12},{"buffer":0,"byteOffset":52972,"byteLength":768,"target":34962,"byteStride":8},{"buffer":0,"byteOffset":53740,"byteLength":264,"target":34963}],"buffers":[{"byteLength":54004,"uri":"data:application/octet-stream;base64,"}],"accessors":[{"bufferView":0,"componentType":5126,"count":680,"max":[0.0625,0.125,0.0625],"min":[-0.0625,0,-0.0625],"type":"VEC3"},{"bufferView":1,"componentType":5126,"count":680,"max":[1,1,1],"min":[-1,-1,-1],"type":"VEC3"},{"bufferView":2,"componentType":5126,"count":680,"max":[0.125,0.125],"min":[0,0],"type":"VEC2"},{"bufferView":3,"componentType":5123,"count":1020,"max":[679],"min":[0],"type":"SCALAR"},{"bufferView":4,"componentType":5126,"count":261,"max":[0.25,0.25,0.25],"min":[-0.25,-0.25,-0.34150636196136475],"type":"VEC3"},{"bufferView":5,"componentType":5126,"count":261,"max":[0.9883065223693848,1,0.9659258127212524],"min":[-0.9883065223693848,-0.9870693683624268,-0.9659258127212524],"type":"VEC3"},{"bufferView":6,"componentType":5126,"count":261,"max":[0.13397499918937683,0.1294124722480774],"min":[0,0],"type":"VEC2"},{"bufferView":7,"componentType":5123,"count":357,"max":[260],"min":[0],"type":"SCALAR"},{"bufferView":8,"componentType":5126,"count":128,"max":[0.25,0.5,0.25],"min":[-0.25,0,-0.25],"type":"VEC3"},{"bufferView":9,"componentType":5126,"count":128,"max":[1,1,1],"min":[-1,-1,-1],"type":"VEC3"},{"bufferView":10,"componentType":5126,"count":128,"max":[0.25,0.25],"min":[0,0],"type":"VEC2"},{"bufferView":11,"componentType":5123,"count":180,"max":[127],"min":[0],"type":"SCALAR"},{"bufferView":12,"componentType":5126,"count":96,"max":[0.25,0.637499988079071,0.25],"min":[-0.25,-0.18125000596046448,-0.25],"type":"VEC3"},{"bufferView":13,"componentType":5126,"count":96,"max":[1,1,1],"min":[-1,-0.999687671661377,-1],"type":"VEC3"},{"bufferView":14,"componentType":5126,"count":96,"max":[0.25,0.25],"min":[0,0],"type":"VEC2"},{"bufferView":15,"componentType":5123,"count":132,"max":[95],"min":[0],"type":"SCALAR"},{"bufferView":16,"componentType":5126,"count":96,"max":[0.125,0.6558695435523987,0.10031268745660782],"min":[-0.125,0.15586957335472107,-0.14968731999397278],"type":"VEC3"},{"bufferView":17,"componentType":5126,"count":96,"max":[1,1,1],"min":[-1,-1,-1],"type":"VEC3"},{"bufferView":18,"componentType":5126,"count":96,"max":[0.25,0.25],"min":[0,0],"type":"VEC2"},{"bufferView":19,"componentType":5123,"count":132,"max":[95],"min":[0],"type":"SCALAR"},{"bufferView":20,"componentType":5126,"count":96,"max":[0.125,0.6558695435523987,0.10031268745660782],"min":[-0.125,0.15586957335472107,-0.14968731999397278],"type":"VEC3"},{"bufferView":21,"componentType":5126,"count":96,"max":[1,1,1],"min":[-1,-1,-1],"type":"VEC3"},{"bufferView":22,"componentType":5126,"count":96,"max":[0.25,0.25],"min":[0,0],"type":"VEC2"},{"bufferView":23,"componentType":5123,"count":132,"max":[95],"min":[0],"type":"SCALAR"},{"bufferView":24,"componentType":5126,"count":96,"max":[0.125,0.25,0.125],"min":[-0.125,0,-0.125],"type":"VEC3"},{"bufferView":25,"componentType":5126,"count":96,"max":[1,1,1],"min":[-1,-1,-1],"type":"VEC3"},{"bufferView":26,"componentType":5126,"count":96,"max":[0.125,0.125],"min":[0,0],"type":"VEC2"},{"bufferView":27,"componentType":5123,"count":132,"max":[95],"min":[0],"type":"SCALAR"},{"bufferView":28,"componentType":5126,"count":96,"max":[0.125,0.25,0.125],"min":[-0.125,0,-0.125],"type":"VEC3"},{"bufferView":29,"componentType":5126,"count":96,"max":[1,1,1],"min":[-1,-1,-1],"type":"VEC3"},{"bufferView":30,"componentType":5126,"count":96,"max":[0.125,0.125],"min":[0,0],"type":"VEC2"},{"bufferView":31,"componentType":5123,"count":132,"max":[95],"min":[0],"type":"SCALAR"}],"materials":[{"pbrMetallicRoughness":{"metallicFactor":0,"roughnessFactor":1},"alphaMode":"MASK","alphaCutoff":0.05,"doubleSided":true},{"pbrMetallicRoughness":{"metallicFactor":0,"roughnessFactor":1},"alphaMode":"MASK","alphaCutoff":0.05,"doubleSided":true},{"pbrMetallicRoughness":{"metallicFactor":0,"roughnessFactor":1},"alphaMode":"MASK","alphaCutoff":0.05,"doubleSided":true},{"pbrMetallicRoughness":{"metallicFactor":0,"roughnessFactor":1},"alphaMode":"MASK","alphaCutoff":0.05,"doubleSided":true},{"pbrMetallicRoughness":{"metallicFactor":0,"roughnessFactor":1},"alphaMode":"MASK","alphaCutoff":0.05,"doubleSided":true}],"meshes":[{"primitives":[{"mode":4,"attributes":{"POSITION":0,"NORMAL":1,"TEXCOORD_0":2},"indices":3,"material":0}]},{"primitives":[{"mode":4,"attributes":{"POSITION":4,"NORMAL":5,"TEXCOORD_0":6},"indices":7,"material":1}]},{"primitives":[{"mode":4,"attributes":{"POSITION":8,"NORMAL":9,"TEXCOORD_0":10},"indices":11,"material":2}]},{"primitives":[{"mode":4,"attributes":{"POSITION":12,"NORMAL":13,"TEXCOORD_0":14},"indices":15,"material":3}]},{"primitives":[{"mode":4,"attributes":{"POSITION":16,"NORMAL":17,"TEXCOORD_0":18},"indices":19,"material":3}]},{"primitives":[{"mode":4,"attributes":{"POSITION":20,"NORMAL":21,"TEXCOORD_0":22},"indices":23,"material":3}]},{"primitives":[{"mode":4,"attributes":{"POSITION":24,"NORMAL":25,"TEXCOORD_0":26},"indices":27,"material":4}]},{"primitives":[{"mode":4,"attributes":{"POSITION":28,"NORMAL":29,"TEXCOORD_0":30},"indices":31,"material":4}]}]}