{"asset":{"version":"2.0","generator":"Blockbench 4.12.6 glTF exporter"},"scenes":[{"nodes":[23],"name":"blockbench_export"}],"scene":0,"nodes":[{"translation":[0,1.25,0],"name":"bone"},{"name":"cube","mesh":0},{"translation":[0,0.5187500000000003,0],"name":"cube","mesh":1},{"translation":[0.13124999999999998,-0.2687500000000007,0],"name":"rightLeg","children":[1,2]},{"name":"cube","mesh":2},{"translation":[-5.551115123125783e-17,0.5187500000000003,0],"name":"cube","mesh":3},{"translation":[-0.13124999999999998,-0.2687500000000007,0],"name":"leftLeg","children":[4,5]},{"translation":[0,0.1874999999999999,0],"name":"pelvis","mesh":4},{"translation":[0,0.6562500000000001,-0.0875],"name":"lowerChest","children":[3,6,7]},{"name":"chest","mesh":5},{"translation":[0,0.46875,0],"name":"neck","mesh":6},{"name":"cube","mesh":7},{"translation":[0,-0.39375000000000115,0],"name":"cube","mesh":8},{"rotation":[0,0,0.5913096483635824,0.8064446042674827],"translation":[0.3937500000000005,0.32500000000000195,-0.01249999999999998],"name":"rightArm","children":[11,12]},{"name":"cube","mesh":9},{"translation":[0,-0.39375000000000115,0],"name":"cube","mesh":10},{"rotation":[0,0,-0.5913096483635824,0.8064446042674827],"translation":[-0.3937500000000005,0.32500000000000195,-0.01249999999999998],"name":"leftArm","children":[14,15]},{"translation":[0,1.4375,0],"name":"UpperChest","children":[9,10,13,16]},{"name":"face","mesh":11},{"rotation":[0.06540312923014306,0,0,0.9978589232386035],"translation":[0,0.5625,0.015625],"name":"Hat","mesh":12},{"rotation":[-0.7513251139457823,0.09008268564652361,0.17304722907653342,0.6304366260061359],"translation":[-0.546875,0.3125,0.109375],"name":"Ears","mesh":13},{"rotation":[-0.7513251139457823,-0.09008268564652361,-0.17304722907653342,0.6304366260061359],"translation":[0.546875,0.3125,0.109375],"name":"Ears","mesh":14},{"translation":[0,2.140625,0],"name":"Head","children":[18,19,20,21]},{"children":[0,8,17,22]}],"bufferViews":[{"buffer":0,"byteOffset":0,"byteLength":288,"target":34962,"byteStride":12},{"buffer":0,"byteOffset":288,"byteLength":288,"target":34962,"byteStride":12},{"buffer":0,"byteOffset":576,"byteLength":192,"target":34962,"byteStride":8},{"buffer":0,"byteOffset":768,"byteLength":72,"target":34963},{"buffer":0,"byteOffset":840,"byteLength":288,"target":34962,"byteStride":12},{"buffer":0,"byteOffset":1128,"byteLength":288,"target":34962,"byteStride":12},{"buffer":0,"byteOffset":1416,"byteLength":192,"target":34962,"byteStride":8},{"buffer":0,"byteOffset":1608,"byteLength":72,"target":34963},{"buffer":0,"byteOffset":1680,"byteLength":288,"target":34962,"byteStride":12},{"buffer":0,"byteOffset":1968,"byteLength":288,"target":34962,"byteStride":12},{"buffer":0,"byteOffset":2256,"byteLength":192,"target":34962,"byteStride":8},{"buffer":0,"byteOffset":2448,"byteLength":72,"target":34963},{"buffer":0,"byteOffset":2520,"byteLength":288,"target":34962,"byteStride":12},{"buffer":0,"byteOffset":2808,"byteLength":288,"target":34962,"byteStride":12},{"buffer":0,"byteOffset":3096,"byteLength":192,"target":34962,"byteStride":8},{"buffer":0,"byteOffset":3288,"byteLength":72,"target":34963},{"buffer":0,"byteOffset":3360,"byteLength":1536,"target":34962,"byteStride":12},{"buffer":0,"byteOffset":4896,"byteLength":1536,"target":34962,"byteStride":12},{"buffer":0,"byteOffset":6432,"byteLength":1024,"target":34962,"byteStride":8},{"buffer":0,"byteOffset":7456,"byteLength":384,"target":34963},{"buffer":0,"byteOffset":7840,"byteLength":1776,"target":34962,"byteStride":12},{"buffer":0,"byteOffset":9616,"byteLength":1776,"target":34962,"byteStride":12},{"buffer":0,"byteOffset":11392,"byteLength":1184,"target":34962,"byteStride":8},{"buffer":0,"byteOffset":12576,"byteLength":408,"target":34963},{"buffer":0,"byteOffset":12984,"byteLength":1536,"target":34962,"byteStride":12},{"buffer":0,"byteOffset":14520,"byteLength":1536,"target":34962,"byteStride":12},{"buffer":0,"byteOffset":16056,"byteLength":1024,"target":34962,"byteStride":8},{"buffer":0,"byteOffset":17080,"byteLength":384,"target":34963},{"buffer":0,"byteOffset":17464,"byteLength":288,"target":34962,"byteStride":12},{"buffer":0,"byteOffset":17752,"byteLength":288,"target":34962,"byteStride":12},{"buffer":0,"byteOffset":18040,"byteLength":192,"target":34962,"byteStride":8},{"buffer":0,"byteOffset":18232,"byteLength":72,"target":34963},{"buffer":0,"byteOffset":18304,"byteLength":288,"target":34962,"byteStride":12},{"buffer":0,"byteOffset":18592,"byteLength":288,"target":34962,"byteStride":12},{"buffer":0,"byteOffset":18880,"byteLength":192,"target":34962,"byteStride":8},{"buffer":0,"byteOffset":19072,"byteLength":72,"target":34963},{"buffer":0,"byteOffset":19144,"byteLength":288,"target":34962,"byteStride":12},{"buffer":0,"byteOffset":19432,"byteLength":288,"target":34962,"byteStride":12},{"buffer":0,"byteOffset":19720,"byteLength":192,"target":34962,"byteStride":8},{"buffer":0,"byteOffset":19912,"byteLength":72,"target":34963},{"buffer":0,"byteOffset":19984,"byteLength":288,"target":34962,"byteStride":12},{"buffer":0,"byteOffset":20272,"byteLength":288,"target":34962,"byteStride":12},{"buffer":0,"byteOffset":20560,"byteLength":192,"target":34962,"byteStride":8},{"buffer":0,"byteOffset":20752,"byteLength":72,"target":34963},{"buffer":0,"byteOffset":20824,"byteLength":1512,"target":34962,"byteStride":12},{"buffer":0,"byteOffset":22336,"byteLength":1512,"target":34962,"byteStride":12},{"buffer":0,"byteOffset":23848,"byteLength":1008,"target":34962,"byteStride":8},{"buffer":0,"byteOffset":24856,"byteLength":336,"target":34963},{"buffer":0,"byteOffset":25192,"byteLength":2304,"target":34962,"byteStride":12},{"buffer":0,"byteOffset":27496,"byteLength":2304,"target":34962,"byteStride":12},{"buffer":0,"byteOffset":29800,"byteLength":1536,"target":34962,"byteStride":8},{"buffer":0,"byteOffset":31336,"byteLength":528,"target":34963},{"buffer":0,"byteOffset":31864,"byteLength":960,"target":34962,"byteStride":12},{"buffer":0,"byteOffset":32824,"byteLength":960,"target":34962,"byteStride":12},{"buffer":0,"byteOffset":33784,"byteLength":640,"target":34962,"byteStride":8},{"buffer":0,"byteOffset":34424,"byteLength":192,"target":34963},{"buffer":0,"byteOffset":34616,"byteLength":960,"target":34962,"byteStride":12},{"buffer":0,"byteOffset":35576,"byteLength":960,"target":34962,"byteStride":12},{"buffer":0,"byteOffset":36536,"byteLength":640,"target":34962,"byteStride":8},{"buffer":0,"byteOffset":37176,"byteLength":192,"target":34963}],"buffers":[{"byteLength":37368,"uri":"data:application/octet-stream;base64,"}],"accessors":[{"bufferView":0,"componentType":5126,"count":24,"max":[0.10625000298023224,0.16249999403953552,0.10625000298023224],"min":[-0.10625000298023224,-0.35624998807907104,-0.10625000298023224],"type":"VEC3"},{"bufferView":1,"componentType":5126,"count":24,"max":[1,1,1],"min":[-1,-1,-1],"type":"VEC3"},{"bufferView":2,"componentType":5126,"count":24,"max":[0.3375000059604645,0.518750011920929],"min":[0.125,0],"type":"VEC2"},{"bufferView":3,"componentType":5123,"count":36,"max":[23],"min":[0],"type":"SCALAR"},{"bufferView":4,"componentType":5126,"count":24,"max":[0.10625000298023224,0.16249999403953552,0.10625000298023224],"min":[-0.10625000298023224,-0.35624998807907104,-0.10625000298023224],"type":"VEC3"},{"bufferView":5,"componentType":5126,"count":24,"max":[1,1,1],"min":[-1,-1,-1],"type":"VEC3"},{"bufferView":6,"componentType":5126,"count":24,"max":[0.3375000059604645,0.518750011920929],"min":[0.125,0],"type":"VEC2"},{"bufferView":7,"componentType":5123,"count":36,"max":[23],"min":[0],"type":"SCALAR"},{"bufferView":8,"componentType":5126,"count":24,"max":[0.10625000298023224,0.16249999403953552,0.10625000298023224],"min":[-0.10625000298023224,-0.35624998807907104,-0.10625000298023224],"type":"VEC3"},{"bufferView":9,"componentType":5126,"count":24,"max":[1,1,1],"min":[-1,-1,-1],"type":"VEC3"},{"bufferView":10,"componentType":5126,"count":24,"max":[0.3375000059604645,0.518750011920929],"min":[0.125,0],"type":"VEC2"},{"bufferView":11,"componentType":5123,"count":36,"max":[23],"min":[0],"type":"SCALAR"},{"bufferView":12,"componentType":5126,"count":24,"max":[0.10625000298023224,0.16249999403953552,0.10625000298023224],"min":[-0.10625000298023224,-0.35624998807907104,-0.10625000298023224],"type":"VEC3"},{"bufferView":13,"componentType":5126,"count":24,"max":[1,1,1],"min":[-1,-1,-1],"type":"VEC3"},{"bufferView":14,"componentType":5126,"count":24,"max":[0.3375000059604645,0.518750011920929],"min":[0.125,0],"type":"VEC2"},{"bufferView":15,"componentType":5123,"count":36,"max":[23],"min":[0],"type":"SCALAR"},{"bufferView":16,"componentType":5126,"count":128,"max":[0.25,0.375,0.21875],"min":[-0.25,0.03125,-0.25],"type":"VEC3"},{"bufferView":17,"componentType":5126,"count":128,"max":[0.9874406456947327,1,1],"min":[-0.9874406456947327,-0.986393928527832,-0.986393928527832],"type":"VEC3"},{"bufferView":18,"componentType":5126,"count":128,"max":[0.4375,0.4375],"min":[0,0],"type":"VEC2"},{"bufferView":19,"componentType":5123,"count":192,"max":[127],"min":[0],"type":"SCALAR"},{"bufferView":20,"componentType":5126,"count":148,"max":[0.48169416189193726,0.5625,0.25],"min":[-0.48169416189193726,-0.24140843749046326,-0.375],"type":"VEC3"},{"bufferView":21,"componentType":5126,"count":148,"max":[0.9936931133270264,0.9615239500999451,0.9961948990821838],"min":[-0.9936931133270264,-1,-1],"type":"VEC3"},{"bufferView":22,"componentType":5126,"count":148,"max":[0.75,0.75],"min":[0,0],"type":"VEC2"},{"bufferView":23,"componentType":5123,"count":204,"max":[147],"min":[0],"type":"SCALAR"},{"bufferView":24,"componentType":5126,"count":128,"max":[0.11249999701976776,0.1875,0.11249999701976776],"min":[-0.11249999701976776,0,-0.11249999701976776],"type":"VEC3"},{"bufferView":25,"componentType":5126,"count":128,"max":[1,1,1],"min":[-1,-1,-1],"type":"VEC3"},{"bufferView":26,"componentType":5126,"count":128,"max":[0.18122263252735138,0.1875],"min":[0,0],"type":"VEC2"},{"bufferView":27,"componentType":5123,"count":192,"max":[127],"min":[0],"type":"SCALAR"},{"bufferView":28,"componentType":5126,"count":24,"max":[0.10625000298023224,0.16249999403953552,0.10625000298023224],"min":[-0.10625000298023224,-0.35624998807907104,-0.10625000298023224],"type":"VEC3"},{"bufferView":29,"componentType":5126,"count":24,"max":[1,1,1],"min":[-1,-1,-1],"type":"VEC3"},{"bufferView":30,"componentType":5126,"count":24,"max":[0.3375000059604645,0.518750011920929],"min":[0.125,0],"type":"VEC2"},{"bufferView":31,"componentType":5123,"count":36,"max":[23],"min":[0],"type":"SCALAR"},{"bufferView":32,"componentType":5126,"count":24,"max":[0.10625000298023224,0.16249999403953552,0.10625000298023224],"min":[-0.10625000298023224,-0.35624998807907104,-0.10625000298023224],"type":"VEC3"},{"bufferView":33,"componentType":5126,"count":24,"max":[1,1,1],"min":[-1,-1,-1],"type":"VEC3"},{"bufferView":34,"componentType":5126,"count":24,"max":[0.3375000059604645,0.518750011920929],"min":[0.125,0],"type":"VEC2"},{"bufferView":35,"componentType":5123,"count":36,"max":[23],"min":[0],"type":"SCALAR"},{"bufferView":36,"componentType":5126,"count":24,"max":[0.10625000298023224,0.16249999403953552,0.10625000298023224],"min":[-0.10625000298023224,-0.35624998807907104,-0.10625000298023224],"type":"VEC3"},{"bufferView":37,"componentType":5126,"count":24,"max":[1,1,1],"min":[-1,-1,-1],"type":"VEC3"},{"bufferView":38,"componentType":5126,"count":24,"max":[0.550000011920929,0.518750011920929],"min":[0.3375000059604645,0],"type":"VEC2"},{"bufferView":39,"componentType":5123,"count":36,"max":[23],"min":[0],"type":"SCALAR"},{"bufferView":40,"componentType":5126,"count":24,"max":[0.10625000298023224,0.16249999403953552,0.10625000298023224],"min":[-0.10625000298023224,-0.35624998807907104,-0.10625000298023224],"type":"VEC3"},{"bufferView":41,"componentType":5126,"count":24,"max":[1,1,1],"min":[-1,-1,-1],"type":"VEC3"},{"bufferView":42,"componentType":5126,"count":24,"max":[0.550000011920929,0.518750011920929],"min":[0.3375000059604645,0],"type":"VEC2"},{"bufferView":43,"componentType":5123,"count":36,"max":[23],"min":[0],"type":"SCALAR"},{"bufferView":44,"componentType":5126,"count":126,"max":[0.5097941756248474,0.6875,0.5],"min":[-0.5097941756248474,-0.125,-0.6487081050872803],"type":"VEC3"},{"bufferView":45,"componentType":5126,"count":126,"max":[0.9536765217781067,0.9947246313095093,1],"min":[-0.9536765217781067,-0.9892034530639648,-0.8751742839813232],"type":"VEC3"},{"bufferView":46,"componentType":5126,"count":126,"max":[0.5549572110176086,0.6875],"min":[0,0],"type":"VEC2"},{"bufferView":47,"componentType":5123,"count":168,"max":[125],"min":[0],"type":"SCALAR"},{"bufferView":48,"componentType":5126,"count":192,"max":[0.453125,0.5419544577598572,0.8870233297348022],"min":[-0.453125,-0.357686311006546,-0.5309826731681824],"type":"VEC3"},{"bufferView":49,"componentType":5126,"count":192,"max":[0.9989064335823059,0.9687477946281433,0.9995849132537842],"min":[-0.9989064335823059,-0.9999704957008362,-0.9936066269874573],"type":"VEC3"},{"bufferView":50,"componentType":5126,"count":192,"max":[0.5411958694458008,0.5411958694458008],"min":[0,0],"type":"VEC2"},{"bufferView":51,"componentType":5123,"count":264,"max":[191],"min":[0],"type":"SCALAR"},{"bufferView":52,"componentType":5126,"count":80,"max":[0.1875,0.109375,0.1875],"min":[-0.2990759015083313,-0.1666729897260666,-0.1875],"type":"VEC3"},{"bufferView":53,"componentType":5126,"count":80,"max":[1,0.944138765335083,0.9766435027122498],"min":[-0.8347124457359314,-0.9389151930809021,-1],"type":"VEC3"},{"bufferView":54,"componentType":5126,"count":80,"max":[0.13529837131500244,0.13529837131500244],"min":[0,0],"type":"VEC2"},{"bufferView":55,"componentType":5123,"count":96,"max":[79],"min":[0],"type":"SCALAR"},{"bufferView":56,"componentType":5126,"count":80,"max":[0.2990759015083313,0.109375,0.1875],"min":[-0.1875,-0.1666729897260666,-0.1875],"type":"VEC3"},{"bufferView":57,"componentType":5126,"count":80,"max":[0.8347124457359314,0.944138765335083,0.9766435027122498],"min":[-1,-0.9389151930809021,-1],"type":"VEC3"},{"bufferView":58,"componentType":5126,"count":80,"max":[0.13529837131500244,0.13529837131500244],"min":[0,0],"type":"VEC2"},{"bufferView":59,"componentType":5123,"count":96,"max":[79],"min":[0],"type":"SCALAR"}],"materials":[{"pbrMetallicRoughness":{"metallicFactor":0,"roughnessFactor":1},"alphaMode":"MASK","alphaCutoff":0.05,"doubleSided":true},{"pbrMetallicRoughness":{"metallicFactor":0,"roughnessFactor":1},"alphaMode":"MASK","alphaCutoff":0.05,"doubleSided":true},{"pbrMetallicRoughness":{"metallicFactor":0,"roughnessFactor":1},"alphaMode":"MASK","alphaCutoff":0.05,"doubleSided":true},{"pbrMetallicRoughness":{"metallicFactor":0,"roughnessFactor":1},"alphaMode":"MASK","alphaCutoff":0.05,"doubleSided":true},{"pbrMetallicRoughness":{"metallicFactor":0,"roughnessFactor":1},"alphaMode":"MASK","alphaCutoff":0.05,"doubleSided":true}],"meshes":[{"primitives":[{"mode":4,"attributes":{"POSITION":0,"NORMAL":1,"TEXCOORD_0":2},"indices":3,"material":0}]},{"primitives":[{"mode":4,"attributes":{"POSITION":4,"NORMAL":5,"TEXCOORD_0":6},"indices":7,"material":0}]},{"primitives":[{"mode":4,"attributes":{"POSITION":8,"NORMAL":9,"TEXCOORD_0":10},"indices":11,"material":0}]},{"primitives":[{"mode":4,"attributes":{"POSITION":12,"NORMAL":13,"TEXCOORD_0":14},"indices":15,"material":0}]},{"primitives":[{"mode":4,"attributes":{"POSITION":16,"NORMAL":17,"TEXCOORD_0":18},"indices":19,"material":1}]},{"primitives":[{"mode":4,"attributes":{"POSITION":20,"NORMAL":21,"TEXCOORD_0":22},"indices":23,"material":2}]},{"primitives":[{"mode":4,"attributes":{"POSITION":24,"NORMAL":25,"TEXCOORD_0":26},"indices":27,"material":3}]},{"primitives":[{"mode":4,"attributes":{"POSITION":28,"NORMAL":29,"TEXCOORD_0":30},"indices":31,"material":0}]},{"primitives":[{"mode":4,"attributes":{"POSITION":32,"NORMAL":33,"TEXCOORD_0":34},"indices":35,"material":0}]},{"primitives":[{"mode":4,"attributes":{"POSITION":36,"NORMAL":37,"TEXCOORD_0":38},"indices":39,"material":0}]},{"primitives":[{"mode":4,"attributes":{"POSITION":40,"NORMAL":41,"TEXCOORD_0":42},"indices":43,"material":0}]},{"primitives":[{"mode":4,"attributes":{"POSITION":44,"NORMAL":45,"TEXCOORD_0":46},"indices":47,"material":3}]},{"primitives":[{"mode":4,"attributes":{"POSITION":48,"NORMAL":49,"TEXCOORD_0":50},"indices":51,"material":4}]},{"primitives":[{"mode":4,"attributes":{"POSITION":52,"NORMAL":53,"TEXCOORD_0":54},"indices":55,"material":3}]},{"primitives":[{"mode":4,"attributes":{"POSITION":56,"NORMAL":57,"TEXCOORD_0":58},"indices":59,"material":3}]}]}